# xmcd CD database file generated by LOLA_Freedb v0.9beta0
# 
# Track frame offsets:
#      150
#      13054
#      25642
# 
# Disc length: 540 seconds
# 
# Revision: 0 
# Processed by: cddbd v1.5.2PL0 Copyright (c) Steve Scherf et al.
# Submitted via: LOLA_Freedb v0.9beta0
# 
DISCID=16021a03
DTITLE=Gudrun Lange and Kactus - Wo sind all die Gefühle (single CD)
DYEAR=1900
DGENRE=
TTITLE0=Gudrun Lange and Kactus - Wo sind all die Gefühle
TTITLE1=Gudrun Lange and Kactus - Kein ganzes Leben lang
TTITLE2=Gudrun Lange and Kactus - Eine Träne aus Gold
EXTD=
EXTT0=
EXTT1=
EXTT2=
PLAYORDER=
